<svg xmlns="http://www.w3.org/2000/svg" width="24" height="24" viewBox="0 0 24 24" fill="none" stroke="currentColor" stroke-width="2" stroke-linecap="round" stroke-linejoin="round">
  <!-- Person in yoga pose -->
  <circle cx="12" cy="5" r="2"/>
  <!-- Body -->
  <path d="M12 7v6"/>
  <!-- Arms in meditation pose -->
  <path d="M8 10c0-2 2-3 4-3s4 1 4 3"/>
  <!-- Legs in lotus position -->
  <path d="M8 13c-1 2-1 4 0 6 1-2 3-2 4-2s3 0 4 2c1-2 1-4 0-6"/>
  <!-- Meditation aura/energy -->
  <path d="M6 8c-1-1-1-3 0-4"/>
  <path d="M18 8c1-1 1-3 0-4"/>
  <path d="M5 15c-1 0-2-1-2-2"/>
  <path d="M19 15c1 0 2-1 2-2"/>
</svg>