<svg xmlns="http://www.w3.org/2000/svg" viewBox="0 0 24 24" width="24" height="24">
  <defs>
    <linearGradient id="calendarGradient" x1="0%" y1="0%" x2="100%" y2="100%">
      <stop offset="0%" style="stop-color:#3b82f6;stop-opacity:1" />
      <stop offset="100%" style="stop-color:#1d4ed8;stop-opacity:1" />
    </linearGradient>
  </defs>
  
  <!-- Calendar body -->
  <rect x="3" y="4" width="18" height="16" fill="url(#calendarGradient)" stroke="#1e40af" stroke-width="0.5" rx="2"/>
  
  <!-- Calendar header -->
  <rect x="3" y="4" width="18" height="4" fill="#1e40af" rx="2"/>
  <rect x="3" y="6" width="18" height="2" fill="#1e40af"/>
  
  <!-- Calendar rings -->
  <rect x="7" y="2" width="1" height="4" fill="#6b7280" rx="0.5"/>
  <rect x="16" y="2" width="1" height="4" fill="#6b7280" rx="0.5"/>
  
  <!-- Calendar grid -->
  <line x1="8" y1="10" x2="8" y2="18" stroke="#ffffff" stroke-width="0.3" opacity="0.3"/>
  <line x1="13" y1="10" x2="13" y2="18" stroke="#ffffff" stroke-width="0.3" opacity="0.3"/>
  <line x1="18" y1="10" x2="18" y2="18" stroke="#ffffff" stroke-width="0.3" opacity="0.3"/>
  <line x1="5" y1="12" x2="19" y2="12" stroke="#ffffff" stroke-width="0.3" opacity="0.3"/>
  <line x1="5" y1="15" x2="19" y2="15" stroke="#ffffff" stroke-width="0.3" opacity="0.3"/>
  
  <!-- Check mark -->
  <path d="M9 14 L11 16 L15 12" stroke="#10b981" stroke-width="2" fill="none" stroke-linecap="round" stroke-linejoin="round"/>
  
  <!-- Highlight -->
  <rect x="4" y="5" width="16" height="1" fill="#ffffff" opacity="0.2"/>
</svg>