<svg width="24" height="24" viewBox="0 0 24 24" xmlns="http://www.w3.org/2000/svg">
  <defs>
    <linearGradient id="homeGrad" x1="0%" y1="0%" x2="100%" y2="100%">
      <stop offset="0%" style="stop-color:#3b82f6;stop-opacity:1" />
      <stop offset="100%" style="stop-color:#1d4ed8;stop-opacity:1" />
    </linearGradient>
  </defs>
  
  <!-- House base -->
  <path d="M3 12l2-2m0 0l7-7 7 7M5 10v10a1 1 0 001 1h3m0 0a1 1 0 001-1v-4a1 1 0 011-1h2a1 1 0 011 1v4a1 1 0 001 1m-6 0h6m2-10v10a1 1 0 01-1 1h-3m-6 0a1 1 0 001-1v-4a1 1 0 011-1h2a1 1 0 011 1v4a1 1 0 001 1m-6 0h6" 
        stroke="url(#homeGrad)" stroke-width="2" fill="none" stroke-linecap="round" stroke-linejoin="round"/>
  
  <!-- House fill -->
  <path d="M12 3l7 7v10a1 1 0 01-1 1h-4v-6a1 1 0 00-1-1h-4a1 1 0 00-1 1v6H6a1 1 0 01-1-1V10l7-7z" 
        fill="url(#homeGrad)" opacity="0.2"/>
  
  <!-- Door -->
  <rect x="10" y="15" width="4" height="6" fill="url(#homeGrad)" opacity="0.6"/>
  
  <!-- Window -->
  <circle cx="15" cy="13" r="1" fill="url(#homeGrad)" opacity="0.8"/>
</svg>