<svg xmlns="http://www.w3.org/2000/svg" viewBox="0 0 24 24" fill="none" stroke="currentColor" stroke-width="2" stroke-linecap="round" stroke-linejoin="round">
  <!-- Apple shape -->
  <path d="M12 2c-2.5 0-4.5 2-4.5 4.5 0 1.5 0.5 2.8 1.3 3.8C7.5 11.5 7 12.8 7 14.5c0 2.5 2 4.5 4.5 4.5h1c2.5 0 4.5-2 4.5-4.5 0-1.7-0.5-3-1.8-4.2 0.8-1 1.3-2.3 1.3-3.8C16.5 4 14.5 2 12 2z"/>
  <!-- Apple leaf -->
  <path d="M12 2c0.5-0.5 1.5-1 2.5-0.5"/>
  <!-- Nutrition facts lines -->
  <line x1="9" y1="8" x2="15" y2="8"/>
  <line x1="9" y1="11" x2="13" y2="11"/>
  <line x1="9" y1="14" x2="14" y2="14"/>
</svg>