<svg width="24" height="24" viewBox="0 0 24 24" xmlns="http://www.w3.org/2000/svg">
  <defs>
    <linearGradient id="paletteGrad" x1="0%" y1="0%" x2="100%" y2="100%">
      <stop offset="0%" style="stop-color:#ec4899;stop-opacity:1" />
      <stop offset="100%" style="stop-color:#be185d;stop-opacity:1" />
    </linearGradient>
  </defs>
  
  <!-- Palette base -->
  <path d="M12 2C6.48 2 2 6.48 2 12s4.48 10 10 10c1.1 0 2-.9 2-2 0-.55-.22-1.05-.58-1.41-.36-.36-.58-.86-.58-1.41 0-1.1.9-2 2-2h2.17c2.76 0 5-2.24 5-5 0-5.52-4.48-10-10-10z" 
        fill="url(#paletteGrad)" opacity="0.3" stroke="url(#paletteGrad)" stroke-width="2"/>
  
  <!-- Color dots -->
  <circle cx="6.5" cy="11.5" r="1.5" fill="#ef4444"/>
  <circle cx="9.5" cy="7.5" r="1.5" fill="#f59e0b"/>
  <circle cx="14.5" cy="7.5" r="1.5" fill="#10b981"/>
  <circle cx="17.5" cy="11.5" r="1.5" fill="#3b82f6"/>
  <circle cx="15.5" cy="16.5" r="1.5" fill="#8b5cf6"/>
  
  <!-- Brush stroke -->
  <path d="M18 6l-2 2" stroke="url(#paletteGrad)" stroke-width="2" stroke-linecap="round"/>
  <circle cx="19" cy="5" r="1" fill="url(#paletteGrad)"/>
  
  <!-- Paint drops -->
  <circle cx="8" cy="15" r="0.5" fill="#ef4444" opacity="0.7"/>
  <circle cx="11" cy="16" r="0.5" fill="#10b981" opacity="0.7"/>
</svg>