<svg width="120" height="120" viewBox="0 0 120 120" xmlns="http://www.w3.org/2000/svg">
  <defs>
    <linearGradient id="prescriptionGrad" x1="0%" y1="0%" x2="100%" y2="100%">
      <stop offset="0%" style="stop-color:#4f46e5;stop-opacity:1" />
      <stop offset="100%" style="stop-color:#7c3aed;stop-opacity:1" />
    </linearGradient>
    <linearGradient id="paperGrad" x1="0%" y1="0%" x2="100%" y2="100%">
      <stop offset="0%" style="stop-color:#ffffff;stop-opacity:1" />
      <stop offset="100%" style="stop-color:#f8fafc;stop-opacity:1" />
    </linearGradient>
  </defs>
  
  <!-- Background circle -->
  <circle cx="60" cy="60" r="55" fill="url(#prescriptionGrad)" opacity="0.1"/>
  
  <!-- Document background -->
  <rect x="25" y="15" width="70" height="90" rx="8" fill="url(#paperGrad)" stroke="url(#prescriptionGrad)" stroke-width="2"/>
  
  <!-- Medical cross -->
  <rect x="35" y="25" width="20" height="4" fill="url(#prescriptionGrad)" rx="2"/>
  <rect x="43" y="17" width="4" height="20" fill="url(#prescriptionGrad)" rx="2"/>
  
  <!-- Prescription lines -->
  <rect x="35" y="45" width="50" height="2" fill="#94a3b8" rx="1"/>
  <rect x="35" y="52" width="45" height="2" fill="#94a3b8" rx="1"/>
  <rect x="35" y="59" width="40" height="2" fill="#94a3b8" rx="1"/>
  <rect x="35" y="66" width="35" height="2" fill="#94a3b8" rx="1"/>
  
  <!-- Pills -->
  <ellipse cx="75" cy="80" rx="8" ry="4" fill="#ef4444" opacity="0.8"/>
  <ellipse cx="85" cy="85" rx="6" ry="3" fill="#10b981" opacity="0.8"/>
  <ellipse cx="65" cy="88" rx="7" ry="3.5" fill="#f59e0b" opacity="0.8"/>
  
  <!-- Signature line -->
  <path d="M35 95 Q45 92 55 95 T75 95" stroke="url(#prescriptionGrad)" stroke-width="2" fill="none"/>
</svg>