<svg width="24" height="24" viewBox="0 0 24 24" xmlns="http://www.w3.org/2000/svg">
  <defs>
    <linearGradient id="rocketGrad" x1="0%" y1="0%" x2="100%" y2="100%">
      <stop offset="0%" style="stop-color:#f59e0b;stop-opacity:1" />
      <stop offset="100%" style="stop-color:#d97706;stop-opacity:1" />
    </linearGradient>
  </defs>
  
  <!-- Rocket body -->
  <path d="M9 9v-5a2 2 0 0 1 2-2h2a2 2 0 0 1 2 2v5" 
        stroke="url(#rocketGrad)" stroke-width="2" fill="url(#rocketGrad)" opacity="0.3"/>
  
  <!-- Rocket nose -->
  <path d="M12 2l3 7h-6l3-7z" fill="url(#rocketGrad)"/>
  
  <!-- Rocket fins -->
  <path d="M7 14l2-2v4l-2-2z" fill="url(#rocketGrad)"/>
  <path d="M17 14l-2-2v4l2-2z" fill="url(#rocketGrad)"/>
  
  <!-- Rocket window -->
  <circle cx="12" cy="6" r="1.5" fill="#ffffff" opacity="0.8"/>
  
  <!-- Flame -->
  <path d="M9 16v2a2 2 0 0 0 2 2h2a2 2 0 0 0 2-2v-2" 
        stroke="url(#rocketGrad)" stroke-width="2" fill="none"/>
  <path d="M10 18l1 3 1-3 1 3 1-3" 
        stroke="#ef4444" stroke-width="1.5" fill="none" stroke-linecap="round"/>
  
  <!-- Stars -->
  <circle cx="6" cy="6" r="0.5" fill="url(#rocketGrad)" opacity="0.6"/>
  <circle cx="18" cy="8" r="0.5" fill="url(#rocketGrad)" opacity="0.6"/>
  <circle cx="20" cy="4" r="0.5" fill="url(#rocketGrad)" opacity="0.6"/>
  
  <!-- Motion trails -->
  <path d="M5 12l-2-1" stroke="url(#rocketGrad)" stroke-width="1" opacity="0.5" stroke-linecap="round"/>
  <path d="M4 15l-2-1" stroke="url(#rocketGrad)" stroke-width="1" opacity="0.5" stroke-linecap="round"/>
</svg>