<svg width="120" height="120" viewBox="0 0 120 120" xmlns="http://www.w3.org/2000/svg">
  <defs>
    <linearGradient id="securityGrad" x1="0%" y1="0%" x2="100%" y2="100%">
      <stop offset="0%" style="stop-color:#3b82f6;stop-opacity:1" />
      <stop offset="100%" style="stop-color:#1d4ed8;stop-opacity:1" />
    </linearGradient>
    <linearGradient id="shieldGrad" x1="0%" y1="0%" x2="100%" y2="100%">
      <stop offset="0%" style="stop-color:#dbeafe;stop-opacity:1" />
      <stop offset="100%" style="stop-color:#bfdbfe;stop-opacity:1" />
    </linearGradient>
  </defs>
  
  <!-- Background circle -->
  <circle cx="60" cy="60" r="55" fill="url(#securityGrad)" opacity="0.1"/>
  
  <!-- Shield shape -->
  <path d="M60 15 Q75 20 85 30 Q85 50 85 65 Q85 85 60 100 Q35 85 35 65 Q35 50 35 30 Q45 20 60 15 Z" 
        fill="url(#shieldGrad)" stroke="url(#securityGrad)" stroke-width="3"/>
  
  <!-- Lock body -->
  <rect x="50" y="55" width="20" height="25" rx="3" fill="url(#securityGrad)"/>
  
  <!-- Lock shackle -->
  <path d="M55 55 Q55 45 60 45 Q65 45 65 55" stroke="url(#securityGrad)" stroke-width="3" fill="none"/>
  
  <!-- Keyhole -->
  <circle cx="60" cy="65" r="3" fill="#ffffff"/>
  <rect x="59" y="65" width="2" height="8" fill="#ffffff"/>
  
  <!-- Security dots -->
  <circle cx="45" cy="40" r="2" fill="url(#securityGrad)" opacity="0.6"/>
  <circle cx="75" cy="40" r="2" fill="url(#securityGrad)" opacity="0.6"/>
  <circle cx="45" cy="75" r="2" fill="url(#securityGrad)" opacity="0.6"/>
  <circle cx="75" cy="75" r="2" fill="url(#securityGrad)" opacity="0.6"/>
  
  <!-- Checkmark -->
  <path d="M50 50 L55 55 L70 40" stroke="#10b981" stroke-width="3" fill="none" stroke-linecap="round" stroke-linejoin="round"/>
</svg>