<svg width="24" height="24" viewBox="0 0 24 24" xmlns="http://www.w3.org/2000/svg">
  <defs>
    <linearGradient id="shieldGrad" x1="0%" y1="0%" x2="100%" y2="100%">
      <stop offset="0%" style="stop-color:#059669;stop-opacity:1" />
      <stop offset="100%" style="stop-color:#047857;stop-opacity:1" />
    </linearGradient>
  </defs>
  
  <!-- Shield body -->
  <path d="M12 22s8-4 8-10V5l-8-3-8 3v7c0 6 8 10 8 10z" 
        fill="url(#shieldGrad)" opacity="0.3" stroke="url(#shieldGrad)" stroke-width="2"/>
  
  <!-- Shield checkmark -->
  <polyline points="9,12 11,14 16,9" 
        stroke="url(#shieldGrad)" stroke-width="2.5" fill="none" stroke-linecap="round" stroke-linejoin="round"/>
  
  <!-- Shield highlight -->
  <path d="M12 20s6-3 6-8V6l-6-2.5-6 2.5v6c0 5 6 8 6 8z" 
        fill="#ffffff" opacity="0.1"/>
  
  <!-- Security dots -->
  <circle cx="8" cy="8" r="0.5" fill="url(#shieldGrad)" opacity="0.7"/>
  <circle cx="16" cy="8" r="0.5" fill="url(#shieldGrad)" opacity="0.7"/>
  <circle cx="12" cy="6" r="0.5" fill="url(#shieldGrad)" opacity="0.7"/>
  
  <!-- Lock symbol -->
  <rect x="10.5" y="16" width="3" height="2" rx="0.5" fill="url(#shieldGrad)" opacity="0.6"/>
  <path d="M10.5 16v-1a1.5 1.5 0 0 1 3 0v1" stroke="url(#shieldGrad)" stroke-width="1" fill="none"/>
</svg>