<svg width="24" height="24" viewBox="0 0 24 24" xmlns="http://www.w3.org/2000/svg">
  <defs>
    <linearGradient id="uploadGrad" x1="0%" y1="0%" x2="100%" y2="100%">
      <stop offset="0%" style="stop-color:#3b82f6;stop-opacity:1" />
      <stop offset="100%" style="stop-color:#1d4ed8;stop-opacity:1" />
    </linearGradient>
  </defs>
  
  <!-- Upload arrow -->
  <path d="M21 15v4a2 2 0 0 1-2 2H5a2 2 0 0 1-2-2v-4" 
        stroke="url(#uploadGrad)" stroke-width="2" fill="none" stroke-linecap="round" stroke-linejoin="round"/>
  <polyline points="7,10 12,5 17,10" 
        stroke="url(#uploadGrad)" stroke-width="2" fill="none" stroke-linecap="round" stroke-linejoin="round"/>
  <line x1="12" y1="5" x2="12" y2="15" 
        stroke="url(#uploadGrad)" stroke-width="2" stroke-linecap="round"/>
  
  <!-- Cloud background -->
  <path d="M12 5c-3 0-5 2-5 5 0 0.5 0.1 1 0.3 1.5C5.5 11.8 4 13.5 4 15.5c0 1.9 1.6 3.5 3.5 3.5h9c1.9 0 3.5-1.6 3.5-3.5 0-2-1.5-3.7-3.3-4 0.2-0.5 0.3-1 0.3-1.5 0-3-2-5-5-5z" 
        fill="url(#uploadGrad)" opacity="0.1"/>
  
  <!-- Motion lines -->
  <path d="M8 8l1-1" stroke="url(#uploadGrad)" stroke-width="1" opacity="0.6" stroke-linecap="round"/>
  <path d="M16 8l-1-1" stroke="url(#uploadGrad)" stroke-width="1" opacity="0.6" stroke-linecap="round"/>
  <path d="M12 3l0 1" stroke="url(#uploadGrad)" stroke-width="1" opacity="0.6" stroke-linecap="round"/>
</svg>